<mxfile host="app.diagrams.net" modified="2023-07-11T12:55:41.046Z" agent="Mozilla/5.0 (Windows NT 10.0; Win64; x64) AppleWebKit/537.36 (KHTML, like Gecko) Chrome/114.0.0.0 Safari/537.36 Edg/114.0.1823.67" etag="oeHDssnmwLxiiH70upCB" version="21.5.2" type="github">
  <diagram name="第 1 页" id="Vh6EjBxzwPC3c47uIkbJ">
    <mxGraphModel dx="990" dy="668" grid="1" gridSize="10" guides="1" tooltips="1" connect="1" arrows="1" fold="1" page="1" pageScale="1" pageWidth="827" pageHeight="1169" math="0" shadow="0">
      <root>
        <mxCell id="0" />
        <mxCell id="1" parent="0" />
        <mxCell id="SioV8SehEkqe-3Xein75-1" value="UTC 模型" style="rounded=1;whiteSpace=wrap;html=1;" parent="1" vertex="1">
          <mxGeometry x="255" y="150" width="120" height="60" as="geometry" />
        </mxCell>
        <mxCell id="0eXLprFVtOaUyR0fxN4K-1" value="UTCTemplate" style="rounded=1;whiteSpace=wrap;html=1;" vertex="1" parent="1">
          <mxGeometry x="530" y="150" width="120" height="60" as="geometry" />
        </mxCell>
        <mxCell id="0eXLprFVtOaUyR0fxN4K-3" style="edgeStyle=orthogonalEdgeStyle;rounded=0;orthogonalLoop=1;jettySize=auto;html=1;" edge="1" parent="1" source="0eXLprFVtOaUyR0fxN4K-2" target="SioV8SehEkqe-3Xein75-1">
          <mxGeometry relative="1" as="geometry" />
        </mxCell>
        <mxCell id="0eXLprFVtOaUyR0fxN4K-4" value="子类" style="edgeLabel;html=1;align=center;verticalAlign=middle;resizable=0;points=[];" vertex="1" connectable="0" parent="0eXLprFVtOaUyR0fxN4K-3">
          <mxGeometry x="-0.0889" y="-1" relative="1" as="geometry">
            <mxPoint as="offset" />
          </mxGeometry>
        </mxCell>
        <mxCell id="0eXLprFVtOaUyR0fxN4K-2" value="ErniePretrainedModel" style="rounded=1;whiteSpace=wrap;html=1;" vertex="1" parent="1">
          <mxGeometry x="240" y="30" width="150" height="60" as="geometry" />
        </mxCell>
        <mxCell id="0eXLprFVtOaUyR0fxN4K-6" style="edgeStyle=orthogonalEdgeStyle;rounded=0;orthogonalLoop=1;jettySize=auto;html=1;exitX=0.5;exitY=0;exitDx=0;exitDy=0;entryX=0.5;entryY=1;entryDx=0;entryDy=0;" edge="1" parent="1" source="0eXLprFVtOaUyR0fxN4K-5" target="SioV8SehEkqe-3Xein75-1">
          <mxGeometry relative="1" as="geometry" />
        </mxCell>
        <mxCell id="0eXLprFVtOaUyR0fxN4K-7" value="使用" style="edgeLabel;html=1;align=center;verticalAlign=middle;resizable=0;points=[];" vertex="1" connectable="0" parent="0eXLprFVtOaUyR0fxN4K-6">
          <mxGeometry x="-0.0838" y="-1" relative="1" as="geometry">
            <mxPoint as="offset" />
          </mxGeometry>
        </mxCell>
        <mxCell id="0eXLprFVtOaUyR0fxN4K-5" value="PromptModelForSequenceClassification" style="rounded=1;whiteSpace=wrap;html=1;" vertex="1" parent="1">
          <mxGeometry x="60" y="290" width="280" height="50" as="geometry" />
        </mxCell>
      </root>
    </mxGraphModel>
  </diagram>
</mxfile>
